<svg width="30" height="30" viewBox="0 0 30 30" fill="none" xmlns="http://www.w3.org/2000/svg">
<g clip-path="url(#clip0_1338_1021)">
<path d="M3.06863 17.9871C3.78988 19.8125 4.93084 21.4424 6.39912 22.7448C7.8674 24.0472 9.62175 24.9856 11.5201 25.484C13.4185 25.9823 15.4075 26.0266 17.3262 25.6133C19.2449 25.2 21.0393 24.3407 22.5642 23.105C19.9106 23.296 17.2654 22.6355 15.0131 21.2194C12.7609 19.8034 11.0192 17.7057 10.0414 15.2315C9.06365 12.7573 8.90074 10.0357 9.57643 7.46252C10.2521 4.88936 11.7311 2.59889 13.7984 0.924299C11.8407 1.06484 9.94366 1.66439 8.2608 2.67442C6.57794 3.68445 5.15657 5.07656 4.11176 6.73805C3.06695 8.39954 2.42808 10.2837 2.24685 12.238C2.06563 14.1923 2.34715 16.1619 3.06863 17.9871Z" fill="white"/>
</g>
<defs>
<clipPath id="clip0_1338_1021">
<rect width="30" height="30" fill="white"/>
</clipPath>
</defs>
</svg>
