<svg width="31" height="30" viewBox="0 0 31 30" fill="none" xmlns="http://www.w3.org/2000/svg">
<path d="M4.5855 23.8625L6.40675 25.625L8.73175 23.3875L6.89758 21.6125M15.5001 7.5C11.2247 7.5 7.75008 10.8625 7.75008 15C7.75008 19.1375 11.2247 22.5 15.5001 22.5C19.7755 22.5 23.2501 19.1375 23.2501 15C23.2501 10.85 19.7755 7.5 15.5001 7.5ZM25.8334 16.25H29.7084V13.75H25.8334M22.2684 23.3875L24.5934 25.625L26.4147 23.8625L24.1026 21.6125M26.4147 6.25L24.5934 4.5L22.2684 6.7375L24.1026 8.5125M16.7917 1.25H14.2084V5H16.7917M8.73175 6.7375L6.40675 4.5L4.5855 6.25L6.89758 8.5125L8.73175 6.7375ZM1.29175 16.25H5.16675V13.75H1.29175M16.7917 25H14.2084V28.75H16.7917" fill="white"/>
</svg>
